<?xml version="1.0" encoding="UTF-8" standalone="no"?>
<svg width="2.4in" height="2.8in" viewBox="0 0 720 840" xmlns="http://www.w3.org/2000/svg">
  <path id="rt4" fill="#37c8ab"
    d="M80,725 l-20,34 h-20 l10,17 -20,34 h20 l20,-34 h20 l20,34 h20 l-20,-34 h20 l20,-34 -10,-17Z  m10,17 h40 l-10,17 h-40Z
       m110,-17 l-40,68 10,17 h60 l10,-17 h-60 l10,-17 h60 l20,-34 -10,-17Z  m10,17 h40 l-10,17 h-40Z
       m110,-17 l-40,68 10,17 h40 l10,-17 10,17 h20 l-10,-17 40,-68 h-20 l-10,17 -10,-17Z  m10,17 h20 l10,17 -20,34 h-40Z
       m110,-17 l-50,85 h80 l-10,-17 h-40 l40,-68Z
       m60,0 l-10,17 h40 l-40,68 h20 l40,-68 h40 l-10,-17Z
       m120,0 l-40,68 h80 l10,17 h20 l-10,-17 10,-17 h-20 l-30,-51Z  m10,17 l20,34 h-40Z"/>
  <path id="hex" fill="#87decd" d="M254,624 L309,667 H411 L466,624 415,576 H305Z"/>
  <path id="btm" fill="#37c8ab" d="M426,523 L415,576 466,624 485,583Z"/>
  <path id="wingRB" fill="#37c8ab" d="M512,399 L462,543 412,493 V282Z"/>
  <path id="wingRT" fill="#87decd" d="M596,181 L635,240 512,399 412,282Z"/>
  <path id="wingLB" fill="#87decd" d="M208,399 L258,543 308,493 V282Z"/>
  <path id="wingLT" fill="#afe9dd" d="M124,181 L85,240 208,399 308,282Z"/>
  <path id="rt" fill="#87decd" d="M671,129 L636,159 681,231 708,190Z"/>
  <path id="lt" fill="#87decd" d="M49,129 L12,190 39,231 84,159Z"/>
  <path id="edge" fill="#87decd" d="M161,54 L118,44 105,52 150,65 178,102 H542 L570,65 615,52 602,44 559,54 533,92 H187Z"/>
</svg>
